HIERARCHY
ROOT pelvis
{
  OFFSET 0 100 0
  CHANNELS 6 Xposition Yposition Zposition Zrotation Xrotation Yrotation
  JOINT pelvis_right_femur
  {
    OFFSET -10.78128 -3.44521 -0.5502486
    CHANNELS 3 Zrotation Xrotation Yrotation
    JOINT right_femur_tibia
    {
      OFFSET -0.8047443 -44.0398 -0.1307829
      CHANNELS 3 Zrotation Xrotation Yrotation
      JOINT right_tibia_foot
      {
        OFFSET 3.006224 -47.83518 -5
        CHANNELS 3 Zrotation Xrotation Yrotation
        End Site
        {
          OFFSET 0 -5 15
        }
      }
    }
  }
  JOINT pelvis_left_femur
  {
    OFFSET 10.78128 -3.44521 -0.5502486
    CHANNELS 3 Zrotation Xrotation Yrotation
    JOINT left_femur_tibia
    {
      OFFSET 0.8047443 -44.0398 -0.1307829
      CHANNELS 3 Zrotation Xrotation Yrotation
      JOINT left_tibia_foot
      {
        OFFSET -4.370144 -48.10324 -4.275266
        CHANNELS 3 Zrotation Xrotation Yrotation
        End Site
        {
          OFFSET 0 -5 15
        }
      }
    }
  }
  JOINT pelvis_spine1
  {
    OFFSET 0 6.468898 -3.129235
    CHANNELS 3 Zrotation Xrotation Yrotation
    JOINT spine1
    {
      OFFSET 0 23.15396 4.99043
      CHANNELS 3 Zrotation Xrotation Yrotation
      JOINT spine2
      {
        OFFSET 0 20.79997 -5.064912
        CHANNELS 3 Zrotation Xrotation Yrotation
        JOINT neck
        {
          OFFSET 0 14.38658 9.616178
          CHANNELS 3 Zrotation Xrotation Yrotation
          End Site
          {
            OFFSET 0 20 0
          }
        }
      }
      JOINT right_manubrium
      {
        OFFSET -5.722621 16.35077 3.967754
        CHANNELS 3 Zrotation Xrotation Yrotation
        JOINT right_clavicle
        {
          OFFSET -13.16364 1.694482 -4.693211
          CHANNELS 3 Zrotation Xrotation Yrotation
          JOINT right_humerus
          {
            OFFSET -28.5034 -0.3100689 -2.792744
            CHANNELS 3 Zrotation Xrotation Yrotation
            JOINT right_radius
            {
              OFFSET -25.15693 0.02248979 -1.271978
              CHANNELS 3 Zrotation Xrotation Yrotation
              End Site
              {
                OFFSET -15 0 0
              }
            }
          }
        }
      }
      JOINT left_manubrium
      {
        OFFSET 5.722621 16.35077 3.967754
        CHANNELS 3 Zrotation Xrotation Yrotation
        JOINT left_clavicle
        {
          OFFSET 13.16364 1.694482 -4.693211
          CHANNELS 3 Zrotation Xrotation Yrotation
          JOINT left_humerus
          {
            OFFSET 29.39168 -1.063119 -2.237045
            CHANNELS 3 Zrotation Xrotation Yrotation
            JOINT left_radius
            {
              OFFSET 24.59957 -0.9528479 0.9047498
              CHANNELS 3 Zrotation Xrotation Yrotation
              End Site
              {
                OFFSET 15 -0 -0
              }
            }
          }
        }
      }
    }
  }
}
MOTION
Frames: 19
Frame Time: 0.0416666666667
0 103.5113 0 -0.08464431 -3.183211 -0.1322749 4.294349 -12.14521 7.360919 -0 36.47824 -0 -10.14548 -18.71693 -5.481621 -4.803652 9.755 -21.17474 -0 5.419814 -0 8.208019 -13.09928 24.26705 -2.042984 -2.15171 5.013082 2.411737 9.955937 -6.877093 1.406006 21.21574 6.913885 3.20939 -24.8659 9.696461 5.565427 -18.93633 11.43999 85.62127 36.71779 -17.96561 -0 0 14.62906 -8.404099 9.187167 4.98714 6.410819 -20.07152 -1.576355 -92.08929 21.49452 20.91288 0 0 -16.3584 13.06167 13.08536 -1.465509
0.2192311 103.3995 1.859023 -0.1399512 -2.62066 -0.2210131 4.664525 -14.62775 7.603515 -0 35.80163 -0 -9.363041 -18.21078 -5.331179 -4.961319 10.68443 -21.2942 -0 5.69107 -0 7.880146 -14.28981 24.14322 -2.03573 -2.188163 4.828067 2.559245 9.933345 -7.079236 1.445081 21.18262 6.958681 3.105078 -25.123 9.926083 5.553801 -18.67887 11.42023 86.23465 36.9581 -18.77712 -0 0 13.92441 -8.061223 9.375263 4.81915 6.42729 -20.24241 -1.509246 -91.59909 21.65585 20.1838 0 0 -17.34481 13.30208 13.06301 -1.606582
0.4203731 103.2421 3.713883 -0.0467376 -1.908721 -0.246267 4.755221 -17.63529 7.732772 -0 35.06275 -0 -8.381754 -16.29412 -4.707747 -5.372973 11.79504 -21.67268 -0 5.706703 -0 7.124142 -16.26155 24.2613 -2.031101 -2.198965 4.798645 2.617751 9.930161 -7.166646 1.424256 21.15587 6.943372 3.077986 -25.23193 9.899441 5.538099 -18.66839 11.42463 86.39203 36.89741 -19.0361 -0 0 13.7974 -7.927087 9.257755 4.810753 6.390605 -20.30563 -1.520919 -91.53515 21.86288 20.12096 0 0 -17.66062 13.09106 13.00134 -1.296806
0.6067569 103.0103 5.637494 -0.0570004 -1.180151 -0.2237541 5.044292 -20.51505 7.709914 -0 33.53696 -0 -7.555223 -14.77192 -4.215723 -5.617055 12.60577 -21.63242 -0 5.872104 -0 6.505045 -17.87302 24.00093 -2.023295 -2.223264 4.718508 2.713212 9.918446 -7.30701 1.417149 21.12032 6.946712 3.027412 -25.41345 9.948656 5.51974 -18.58708 11.41971 86.72804 36.90517 -19.53135 -0 0 13.48394 -7.685409 9.195151 4.729838 6.371587 -20.41824 -1.512312 -91.34219 22.10029 19.85434 0 0 -18.2407 12.98524 12.94329 -1.076119
0.7785917 102.692 7.703198 -0.1387795 -0.3008406 -0.1425891 5.471378 -23.55232 7.65173 -0 31.38287 -0 -6.656347 -13.42684 -3.778688 -5.779638 13.31191 -21.34705 -0 6.165109 -0 5.759087 -19.40939 23.40192 -2.01528 -2.247134 4.651584 2.797861 9.906025 -7.434021 1.4077 21.08656 6.94979 2.986866 -25.5824 9.986462 5.501901 -18.52557 11.41393 87.02835 36.89299 -19.98271 -0 0 13.22425 -7.454561 9.111424 4.64583 6.357283 -20.52103 -1.507874 -91.18984 22.33077 19.64171 0 0 -18.75416 12.87139 12.89003 -0.8562125
0.9379044 102.2881 9.991998 -0.2939317 0.6314978 0.0007077609 5.990767 -26.38379 7.532923 -0 28.84346 -0 -5.82191 -12.2872 -3.422917 -5.842384 13.85902 -20.81573 -0 6.723727 -0 4.933086 -20.63733 22.46827 -2.008147 -2.269061 4.579292 2.883812 9.89479 -7.562458 1.399157 21.05461 6.952995 2.944105 -25.7466 10.02545 5.484544 -18.4538 11.40936 87.3349 36.88706 -20.43661 -0 0 12.94281 -7.236857 9.043178 4.572091 6.340897 -20.6265 -1.503948 -91.01725 22.55261 19.40208 0 0 -19.28179 12.76443 12.83672 -0.6432454
1.086915 101.8212 12.58925 -0.5210627 1.580361 0.2084532 6.572694 -28.8668 7.360098 -0 26.1372 -0 -5.095294 -11.31805 -3.15298 -5.810308 14.26202 -20.07051 -0 7.732994 -0 4.005572 -21.45593 21.20015 -2.002713 -2.286496 4.50631 2.965883 9.886667 -7.684386 1.39105 21.02663 6.954533 2.901174 -25.89274 10.05858 5.468818 -18.37612 11.40756 87.62465 36.88598 -20.85905 -0 0 12.6561 -7.053455 8.995504 4.521263 6.320317 -20.72792 -1.502327 -90.83273 22.75177 19.15014 0 0 -19.78996 12.66205 12.78415 -0.4397703
1.228853 101.3345 15.5724 -0.8115856 2.456067 0.4769913 7.170439 -30.77643 7.115252 -0 23.55339 -0 -4.580617 -10.4874 -2.976204 -5.685785 14.50427 -19.14689 -0 9.401184 -0 3.027875 -21.71754 19.64779 -2.00012 -2.296259 4.432087 3.042783 9.884586 -7.796945 1.383139 21.00447 6.952102 2.856522 -26.00952 10.08019 5.455751 -18.28866 11.41109 87.88649 36.89393 -21.23008 -0 0 12.35878 -6.927386 8.982354 4.511692 6.290424 -20.823 -1.504753 -90.62661 22.91549 18.87778 0 0 -20.27021 12.56091 12.73014 -0.2435703
1.368003 100.8922 19.00157 -1.151929 3.165121 0.7951152 7.741255 -31.91811 6.782219 -0 21.36778 -0 -4.373583 -9.784177 -2.89939 -5.471769 14.55056 -18.08306 -0 11.94024 -0 2.0749 -21.29902 17.88626 -2.001179 -2.295795 4.358343 3.11202 9.890937 -7.896178 1.374776 20.98955 6.943626 2.810247 -26.08605 10.08371 5.446213 -18.19152 11.42188 88.10613 36.91133 -21.52781 -0 0 12.05525 -6.878218 9.011396 4.557268 6.247676 -20.90858 -1.513388 -90.39764 23.03303 18.58728 0 0 -20.70644 12.45592 12.67296 -0.05155244
1.509565 100.5768 22.90736 -1.518747 3.617662 1.1429 8.241428 -32.12453 6.350414 -0 19.80868 -0 -4.5487 -9.218032 -2.92124 -5.173107 14.32536 -16.92237 -0 15.51869 -0 1.226111 -20.12523 16.01564 -2.006667 -2.282393 4.28706 3.17107 9.908111 -7.978372 1.364973 20.98325 6.926687 2.762611 -26.11097 10.0613 5.440873 -18.08524 11.44185 88.26875 36.93674 -21.73045 -0 0 11.75094 -6.926063 9.088407 4.6724 6.188229 -20.98173 -1.531006 -90.14532 23.0953 18.28216 0 0 -21.08272 12.33847 12.61008 0.1434591
1.658878 100.4805 27.28064 -1.877528 3.751824 1.493103 8.626517 -31.28399 5.819851 -0 18.9844 -0 -5.130766 -8.80656 -3.021394 -4.797474 13.69817 -15.70938 -0 20.20951 -0 0.5190814 -18.20668 14.14093 -2.017197 -2.25347 4.220769 3.217134 9.938084 -8.039866 1.352595 20.98674 6.898864 2.714388 -26.07312 10.00476 5.440038 -17.97136 11.47247 88.35957 36.96622 -21.81729 -0 0 11.45394 -7.089565 9.215892 4.869752 6.108823 -21.03956 -1.560723 -89.87159 23.09549 17.9685 0 0 -21.38249 12.19765 12.53859 0.35105
1.819796 100.6861 32.06548 -2.182928 3.547192 1.814321 8.849686 -29.35923 5.198594 -0 18.81284 -0 -6.080896 -8.554466 -3.150234 -4.35482 12.48243 -14.48366 -0 25.91975 -0 -0.07728405 -15.6661 12.36683 -2.033312 -2.206206 4.162586 3.246741 9.98257 -8.076411 1.336531 21.00139 6.857574 2.66679 -25.96013 9.905359 5.443625 -17.85198 11.51491 88.36253 36.99336 -21.76616 -0 0 11.17485 -7.388517 9.394591 5.161884 6.006519 -21.07865 -1.606017 -89.58 23.02754 17.65412 0 0 -21.58685 12.02063 12.4551 0.5824384
1.992366 101.239 37.15872 -2.383653 3.022065 2.073993 8.869163 -26.40211 4.499163 -0 18.98237 -0 -7.298771 -8.441899 -3.228442 -3.854444 10.47006 -13.27091 -0 32.31698 -0 -0.6457466 -12.74522 10.8131 -2.055479 -2.137386 4.1168 3.255065 10.04289 -8.082199 1.315901 21.02897 6.800045 2.621722 -25.75742 9.753985 5.451001 -17.73036 11.56982 88.25869 37.00852 -21.55072 -0 0 10.92913 -7.84497 9.623376 5.561363 5.878943 -21.09404 -1.670588 -89.27721 22.88522 17.35042 0 0 -21.67108 11.79307 12.35592 0.8494373
2.170926 102.1143 42.42 -2.433718 2.211788 2.239093 8.670905 -22.56075 3.740654 -0 18.99891 -0 -8.641879 -8.441915 -3.168667 -3.30014 7.515643 -12.07566 -0 38.77918 -0 -1.248795 -9.779883 9.638408 -2.083947 -2.043553 4.089827 3.235281 10.11945 -8.048959 1.290241 21.07167 6.723404 2.582188 -25.44868 9.541641 5.460599 -17.61253 11.63695 88.02518 36.99691 -21.13895 -0 0 10.74089 -8.481793 9.896905 6.079236 5.724852 -21.07808 -1.757953 -88.97631 22.66356 17.07653 0 0 -21.60097 11.4986 12.23723 1.164695
2.3451 103.1999 47.6944 -2.310957 1.145163 2.275858 8.29673 -18.07378 2.95831 -0 18.36016 -0 -9.950582 -8.577732 -2.92577 -2.685135 3.650044 -10.88174 -0 44.41905 -0 -1.836251 -7.133106 9.031118 -2.118383 -1.921992 4.091189 3.178631 10.21048 -7.965992 1.259654 21.13167 6.625298 2.552711 -25.02028 9.261439 5.469255 -17.50996 11.71434 87.63759 36.9361 -20.49715 -0 0 10.64717 -9.314823 10.19981 6.719614 5.545362 -21.0196 -1.870267 -88.70217 22.36461 16.86572 0 0 -21.3324 11.11827 12.0956 1.543229
2.506119 104.3087 52.84467 -2.036567 -0.1485518 2.154206 7.846348 -13.24316 2.210592 -0 16.81178 -0 -11.06433 -8.986711 -2.550746 -1.991981 -0.8535895 -9.666679 -0 48.23552 -0 -2.214812 -5.0919 9.134793 -2.157378 -1.772608 4.133614 3.075963 10.31059 -7.821923 1.224886 21.20991 6.505172 2.539124 -24.47029 8.912393 5.471742 -17.44219 11.79757 87.07741 36.79572 -19.60089 -0 0 10.69841 -10.33932 10.50081 7.471699 5.34524 -20.90452 -2.006257 -88.4954 22.0057 16.77008 0 0 -20.81788 10.63187 11.92877 2.003502
2.656879 105.2261 57.78425 -1.679061 -1.592241 1.85895 7.429397 -8.378892 1.566683 -0 14.5103 -0 -11.83782 -9.901841 -2.185905 -1.204448 -5.54788 -8.428316 -0 49.39059 -0 -2.147206 -3.769778 9.943129 -2.198212 -1.599919 4.230806 2.921051 10.41075 -7.608472 1.187313 21.30465 6.365764 2.546936 -23.81803 8.503753 5.461377 -17.43581 11.88022 86.34344 36.54392 -18.45022 -0 0 10.94908 -11.5183 10.75469 8.304618 5.132958 -20.71882 -2.159176 -88.408 21.62285 16.8555 0 0 -20.02194 10.02434 11.73657 2.563828
2.818064 105.769 62.49859 -1.328293 -3.025715 1.399555 7.096483 -3.725508 1.07309 -0 11.93174 -0 -12.1866 -11.49901 -1.970901 -0.3306797 -9.988025 -7.209769 -0 47.5066 -0 -1.525911 -3.082807 11.26231 -2.237202 -1.413633 4.392069 2.714688 10.50101 -7.325456 1.148909 21.41061 6.213634 2.578326 -23.106 8.056828 5.432123 -17.51666 11.95584 85.4621 36.1611 -17.08194 -0 0 11.43603 -12.78385 10.91832 9.17123 4.918712 -20.45484 -2.316854 -88.48625 21.2611 17.18002 0 0 -18.94264 9.297443 11.52211 3.231499
3.022895 105.8291 67.04426 -1.050933 -4.246773 0.8099551 6.811874 0.5919499 0.7318984 -0 9.609019 -0 -12.13838 -13.71807 -1.940299 0.5755327 -13.86624 -6.107141 -0 42.81892 -0 -0.4666744 -2.826532 12.79548 -2.270586 -1.226788 4.615779 2.467132 10.5746 -6.98464 1.11224 21.51969 6.057865 2.629644 -22.38939 7.601814 5.381187 -17.69697 12.02026 84.48981 35.65368 -15.57137 -0 0 12.15409 -14.05411 10.97259 10.02018 4.71171 -20.11834 -2.465114 -88.74713 20.95518 17.76208 0 0 -17.62819 8.479659 11.29279 3.989884
